#!OML:ASF H:\Male1\Project 1\Capture day 1\Session 1\Male1.ASF
:FULLY-SPECIFIED
:DEGREES
816
root -9.14056 15.1889 -2.2074 2.72466 11.7716 4.70721
lowerback 5.62934 -1.25688 -3.31517
upperback 3.02028 -1.83131 -1.87796
thorax -0.00246102 -0.933688 0.0289508
lowerneck -10.563 -0.911268 -1.48387
upperneck 13.4767 -1.46508 3.19651
head 5.84736 -0.544001 1.13335
rclavicle 4.96962e-016 -1.96797e-014
rhumerus -47.1223 14.9229 -93.4173
rradius 34.3193
rwrist -22.768
rhand -19.6143 -0.683185
rfingers 7.12502
rthumb 6.71214 -30.5568
lclavicle 4.96962e-016 -1.96797e-014
lhumerus -44.1343 -5.6757 81.3331
lradius 34.3456
lwrist 5.83931
lhand -23.0989 12.7066
lfingers 7.12502
lthumb 3.34755 42.66
rfemur -18.2468 -6.19092 25.4419
rtibia 36.6473
rfoot -29.2049 -22.3616
rtoes -9.15568
lfemur -6.02105 17.4781 -30.7941
ltibia 48.7165
lfoot -14.2049 -14.8893
ltoes -31.8721
817
root -9.30647 15.1699 -2.2073 2.97472 12.5976 4.97233
lowerback 5.60037 -1.51673 -3.47398
upperback 2.87142 -2.18776 -1.7997
thorax -0.121448 -1.11114 0.218491
lowerneck -10.63 -0.968372 -1.70328
upperneck 13.4255 -1.51234 3.25128
head 5.84581 -0.573783 1.18253
rclavicle 1.05107e-014 1.5207e-014
rhumerus -47.055 14.5693 -93.0759
rradius 34.1992
rwrist -23.2099
rhand -18.6239 0.219046
rfingers 7.12502
rthumb 7.66818 -29.6219
lclavicle 1.05107e-014 1.5207e-014
lhumerus -44.1378 -5.58525 81.5335
lradius 34.5462
lwrist 5.94403
lhand -24.4344 13.2554
lfingers 7.12502
lthumb 2.05785 43.2252
rfemur -18.9901 -7.74384 25.8351
rtibia 37.3796
rfoot -28.553 -21.5731
rtoes -9.50289
lfemur -5.52424 17.6753 -32.1832
ltibia 46.8948
lfoot -12.4681 -17.1766
ltoes -25.388
818
root -9.47598 15.1482 -2.2114 3.26296 13.4659 5.01221
lowerback 5.44958 -1.76459 -3.51506
upperback 2.74315 -2.51543 -1.62652
thorax -0.150499 -1.27491 0.433571
lowerneck -10.7207 -1.07844 -1.90035
upperneck 13.3641 -1.62804 3.26434
head 5.84664 -0.638586 1.20914
rclavicle 3.70236e-015 2.98177e-015
rhumerus -47.1962 14.7715 -93.2594
rradius 34.4041
rwrist -22.9769
rhand -19.2556 -0.432842
rfingers 7.12502
rthumb 7.05843 -30.2951
lclavicle 3.70236e-015 2.98177e-015
lhumerus -44.1077 -5.59782 81.8623
lradius 34.7952
lwrist 6.15777
lhand -24.063 13.1594
lfingers 7.12502
lthumb 2.41654 43.1254
rfemur -19.8149 -9.07768 26.4448
rtibia 38.0208
rfoot -28.3288 -20.4956
rtoes -8.6489
lfemur -5.01061 17.7426 -33.3669
ltibia 44.9574
lfoot -12.2575 -18.0603
ltoes -26.3466
819
root -9.64523 15.1232 -2.21847 3.38265 14.3193 4.52967
lowerback 5.29598 -1.97755 -3.17592
upperback 2.65452 -2.77702 -1.29906
thorax -0.148292 -1.4042 0.589692
lowerneck -10.8 -1.20887 -1.97996
upperneck 13.3232 -1.77981 3.20008
head 5.8516 -0.720686 1.18904
rclavicle -2.06115e-014 -1.12562e-014
rhumerus -47.1178 14.5909 -93.0086
rradius 34.3323
rwrist -23.4995
rhand -18.9093 0.432652
rfingers 7.12502
rthumb 7.39273 -29.4182
lclavicle -2.06115e-014 -1.12562e-014
lhumerus -43.9778 -5.5856 82.1566
lradius 34.949
lwrist 6.11916
lhand -22.3194 12.3729
lfingers 7.12502
lthumb 4.10033 42.3132
rfemur -20.5397 -10.1044 27.5916
rtibia 38.5228
rfoot -28.0845 -19.4538
rtoes -7.09155
lfemur -4.49136 17.2352 -33.932
ltibia 42.9559
lfoot -12.8609 -18.1698
ltoes -34.7174
820
root -9.8148 15.1096 -2.23003 3.34541 15.191 3.97257
lowerback 5.25557 -2.17077 -2.86786
upperback 2.63258 -3.01681 -0.971093
thorax -0.139178 -1.52343 0.764601
lowerneck -10.8209 -1.33241 -2.03833
upperneck 13.2369 -1.93286 3.1858
head 5.83267 -0.799337 1.18124
rclavicle 4.21676e-014 -5.39087e-015
rhumerus -47.1037 14.5796 -93.0117
rradius 34.4627
rwrist -23.6558
rhand -19.0814 0.400362
rfingers 7.12502
rthumb 7.22654 -29.4562
lclavicle 4.21676e-014 -5.39087e-015
lhumerus -43.6979 -5.63642 82.382
lradius 35.0357
lwrist 5.96363
lhand -23.6858 12.9943
lfingers 7.12502
lthumb 2.78081 42.956
rfemur -21.0806 -11.0804 28.8164
rtibia 38.9248
rfoot -27.4116 -18.7537
rtoes -6.86586
lfemur -3.86802 15.8474 -34.2082
ltibia 40.9675
lfoot -10.8007 -18.7426
ltoes -22.7646
821
root -9.99314 15.0658 -2.24944 3.31116 16.0115 3.68399
lowerback 5.20662 -2.33656 -2.9132
upperback 2.66569 -3.23498 -0.746016
thorax -0.0546678 -1.63565 1.02722
lowerneck -10.7971 -1.45458 -2.22712
upperneck 13.141 -2.10258 3.44048
head 5.80782 -0.872861 1.27861
rclavicle -5.65604e-015 -6.26172e-015
rhumerus -46.995 14.554 -93.0207
rradius 34.4631
rwrist -23.8183
rhand -18.9354 0.777536
rfingers 7.12502
rthumb 7.36746 -29.0742
lclavicle -5.65604e-015 -6.26172e-015
lhumerus -43.329 -5.87698 82.635
lradius 35.1155
lwrist 5.97451
lhand -23.5071 12.2026
lfingers 7.12502
lthumb 2.95337 42.1619
rfemur -21.7444 -12.1766 29.8647
rtibia 39.4109
rfoot -26.486 -18.3018
rtoes -7.86163
lfemur -3.11924 14.5568 -34.7493
ltibia 38.7983
lfoot -11.68 -17.7971
ltoes -27.9036
822
root -10.173 15.0375 -2.26746 3.20295 16.6657 3.45517
lowerback 5.2234 -2.44741 -3.18002
upperback 2.71138 -3.39231 -0.553144
thorax 0.0172154 -1.71953 1.3794
lowerneck -10.744 -1.60218 -2.41002
upperneck 13.0942 -2.31594 3.73882
head 5.79604 -0.964083 1.38545
rclavicle 1.34242e-014 -1.48219e-014
rhumerus -46.9285 14.728 -93.1726
rradius 34.4824
rwrist -24.0116
rhand -18.8412 0.85539
rfingers 7.12502
rthumb 7.45839 -28.9931
lclavicle 1.34242e-014 -1.48219e-014
lhumerus -42.9889 -6.08659 82.8328
lradius 35.1658
lwrist 5.94888
lhand -23.2377 12.7889
lfingers 7.12502
lthumb 3.2135 42.7444
rfemur -22.3653 -13.3451 30.8699
rtibia 39.9063
rfoot -25.6986 -17.812
rtoes -7.48227
lfemur -2.39613 12.599 -35.136
ltibia 36.5658
lfoot -9.6308 -17.6481
ltoes -20.7304
